<?xml version="1.0" encoding="UTF-8"?>
<svg xmlns="http://www.w3.org/2000/svg" xmlns:xlink="http://www.w3.org/1999/xlink" width="16px" height="16px" viewBox="0 0 16 16" version="1.1">
<g id="surface1">
<path style=" stroke:none;fill-rule:nonzero;fill:rgb(0%,0%,0%);fill-opacity:1;" d="M 0 8 L 0 16 L 16 16 L 16 0 L 0 0 Z M 2.84375 2.929688 C 2.894531 2.953125 2.945312 3.007812 2.957031 3.046875 C 2.964844 3.089844 2.976562 3.5 2.976562 3.964844 C 2.976562 4.71875 2.980469 4.804688 3.027344 4.789062 C 3.054688 4.777344 5.515625 4.769531 8.496094 4.769531 L 13.917969 4.769531 L 13.925781 4.664062 C 13.933594 4.601562 13.957031 4.558594 13.984375 4.550781 C 14.050781 4.539062 14.398438 4.800781 14.398438 4.863281 C 14.398438 4.921875 14.078125 5.183594 14.007812 5.183594 C 13.957031 5.183594 13.921875 5.117188 13.921875 5.019531 C 13.921875 4.960938 13.820312 4.960938 8.5 4.960938 C 5.515625 4.960938 3.054688 4.949219 3.027344 4.941406 C 2.980469 4.921875 2.976562 5.007812 2.976562 5.777344 C 2.976562 6.644531 2.964844 6.71875 2.851562 6.804688 C 2.8125 6.835938 2.582031 6.84375 2.023438 6.847656 L 1.246094 6.847656 L 1.089844 6.691406 L 1.089844 3.035156 L 1.167969 2.960938 L 1.246094 2.878906 L 2 2.878906 C 2.597656 2.878906 2.773438 2.890625 2.84375 2.929688 Z M 9.726562 7.625 L 9.742188 8.132812 L 9.820312 8.050781 C 9.9375 7.925781 10.167969 7.863281 10.460938 7.875 C 10.761719 7.890625 10.925781 7.980469 11.0625 8.214844 L 11.152344 8.367188 L 11.160156 9.0625 L 11.171875 9.761719 L 10.855469 9.761719 L 10.839844 9.125 C 10.832031 8.5625 10.824219 8.484375 10.769531 8.382812 C 10.59375 8.082031 10.035156 8.085938 9.820312 8.386719 C 9.746094 8.492188 9.742188 8.523438 9.734375 9.128906 L 9.722656 9.761719 L 9.558594 9.753906 L 9.390625 9.742188 L 9.382812 8.464844 C 9.378906 7.761719 9.382812 7.164062 9.390625 7.140625 C 9.402344 7.113281 9.457031 7.105469 9.558594 7.109375 L 9.710938 7.121094 Z M 2.628906 7.328125 C 2.726562 7.363281 2.867188 7.441406 2.941406 7.507812 L 3.074219 7.621094 L 2.832031 7.832031 L 2.753906 7.761719 C 2.582031 7.601562 2.46875 7.566406 2.144531 7.566406 C 1.875 7.566406 1.820312 7.578125 1.679688 7.65625 C 1.488281 7.757812 1.34375 7.902344 1.246094 8.097656 C 1.144531 8.296875 1.140625 8.6875 1.234375 8.898438 C 1.390625 9.234375 1.671875 9.429688 2.050781 9.460938 C 2.324219 9.484375 2.523438 9.433594 2.707031 9.292969 L 2.84375 9.1875 L 2.964844 9.292969 L 3.082031 9.394531 L 2.957031 9.496094 C 2.675781 9.730469 2.296875 9.828125 1.917969 9.761719 C 1.316406 9.664062 0.917969 9.28125 0.832031 8.710938 C 0.726562 8.027344 1.15625 7.40625 1.839844 7.265625 C 2.035156 7.21875 2.433594 7.253906 2.628906 7.328125 Z M 8.289062 7.664062 L 8.289062 7.871094 L 8.832031 7.871094 L 8.832031 8 C 8.832031 8.152344 8.785156 8.171875 8.488281 8.152344 L 8.304688 8.144531 L 8.292969 8.679688 C 8.285156 9.28125 8.3125 9.414062 8.46875 9.476562 C 8.558594 9.507812 8.695312 9.5 8.804688 9.457031 C 8.84375 9.441406 8.875 9.460938 8.910156 9.53125 C 8.9375 9.585938 8.960938 9.636719 8.960938 9.648438 C 8.960938 9.695312 8.710938 9.765625 8.539062 9.761719 C 8.273438 9.761719 8.082031 9.644531 8.003906 9.429688 C 7.984375 9.378906 7.96875 9.089844 7.96875 8.753906 L 7.96875 8.164062 L 7.816406 8.152344 L 7.664062 8.144531 L 7.65625 8.007812 L 7.644531 7.871094 L 7.96875 7.871094 L 7.96875 7.457031 L 8.289062 7.457031 Z M 4.769531 7.96875 C 5.019531 8.097656 5.199219 8.398438 5.222656 8.722656 L 5.230469 8.910156 L 4.457031 8.921875 L 3.683594 8.929688 L 3.71875 9.035156 C 3.773438 9.195312 3.890625 9.332031 4.042969 9.40625 C 4.289062 9.523438 4.695312 9.480469 4.875 9.320312 C 4.929688 9.265625 4.9375 9.269531 5.011719 9.359375 C 5.054688 9.414062 5.089844 9.472656 5.089844 9.488281 C 5.089844 9.539062 4.835938 9.691406 4.6875 9.730469 C 4.617188 9.75 4.4375 9.761719 4.289062 9.753906 C 4.0625 9.742188 3.988281 9.726562 3.847656 9.648438 C 3.53125 9.476562 3.382812 9.210938 3.378906 8.816406 C 3.375 8.527344 3.4375 8.351562 3.613281 8.152344 C 3.867188 7.863281 4.398438 7.777344 4.769531 7.96875 Z M 6.894531 7.949219 C 7.195312 8.089844 7.382812 8.375 7.414062 8.738281 L 7.433594 8.929688 L 6.660156 8.929688 C 5.796875 8.929688 5.832031 8.917969 5.953125 9.152344 C 6.117188 9.476562 6.660156 9.585938 6.996094 9.355469 L 7.113281 9.273438 L 7.210938 9.371094 C 7.328125 9.492188 7.308594 9.523438 7.03125 9.664062 C 6.863281 9.746094 6.804688 9.761719 6.578125 9.761719 C 6.265625 9.761719 6.144531 9.726562 5.941406 9.59375 C 5.65625 9.394531 5.492188 8.984375 5.566406 8.636719 C 5.671875 8.144531 6 7.875 6.496094 7.871094 C 6.679688 7.871094 6.769531 7.886719 6.894531 7.949219 Z M 12.128906 8.015625 C 12.128906 8.097656 12.136719 8.160156 12.148438 8.160156 C 12.15625 8.160156 12.195312 8.121094 12.234375 8.078125 C 12.316406 7.972656 12.542969 7.871094 12.707031 7.871094 L 12.832031 7.871094 L 12.832031 8.175781 L 12.679688 8.1875 C 12.480469 8.195312 12.300781 8.316406 12.222656 8.488281 C 12.167969 8.605469 12.160156 8.703125 12.160156 9.195312 L 12.160156 9.761719 L 11.992188 9.753906 L 11.824219 9.742188 L 11.8125 8.804688 L 11.808594 7.871094 L 12.128906 7.871094 Z M 13.601562 8.480469 C 13.601562 9.140625 13.617188 9.230469 13.777344 9.375 C 13.851562 9.445312 13.886719 9.457031 14.109375 9.457031 C 14.328125 9.457031 14.371094 9.445312 14.46875 9.371094 C 14.664062 9.222656 14.6875 9.132812 14.6875 8.519531 C 14.6875 8.21875 14.699219 7.953125 14.707031 7.921875 C 14.71875 7.886719 14.769531 7.871094 14.882812 7.871094 L 15.039062 7.871094 L 15.039062 9.761719 L 14.71875 9.761719 L 14.71875 9.632812 C 14.71875 9.488281 14.695312 9.472656 14.605469 9.570312 C 14.453125 9.742188 14.058594 9.8125 13.742188 9.726562 C 13.582031 9.679688 13.363281 9.460938 13.3125 9.296875 C 13.265625 9.144531 13.230469 8.15625 13.261719 7.988281 C 13.28125 7.871094 13.28125 7.871094 13.441406 7.871094 L 13.601562 7.871094 Z M 13.601562 8.480469 "/>
<path style=" stroke:none;fill-rule:nonzero;fill:rgb(0%,0%,0%);fill-opacity:1;" d="M 4.082031 8.175781 C 4.015625 8.199219 3.921875 8.257812 3.867188 8.308594 C 3.777344 8.394531 3.695312 8.574219 3.71875 8.640625 C 3.726562 8.671875 4.878906 8.699219 4.910156 8.667969 C 4.945312 8.632812 4.824219 8.386719 4.722656 8.296875 C 4.550781 8.136719 4.316406 8.09375 4.082031 8.175781 Z M 4.082031 8.175781 "/>
<path style=" stroke:none;fill-rule:nonzero;fill:rgb(0%,0%,0%);fill-opacity:1;" d="M 6.257812 8.179688 C 6.1875 8.203125 6.097656 8.257812 6.058594 8.292969 C 5.976562 8.367188 5.867188 8.628906 5.902344 8.664062 C 5.9375 8.699219 7.105469 8.691406 7.105469 8.65625 C 7.105469 8.636719 7.074219 8.566406 7.042969 8.496094 C 6.898438 8.1875 6.582031 8.0625 6.257812 8.179688 Z M 6.257812 8.179688 "/>
</g>
</svg>
