<?xml version="1.0" encoding="UTF-8"?>
<svg xmlns="http://www.w3.org/2000/svg" xmlns:xlink="http://www.w3.org/1999/xlink" width="36px" height="12px" viewBox="0 0 35 12" version="1.1">
<g id="surface1">
<path style=" stroke:none;fill-rule:nonzero;fill:rgb(0%,0%,0%);fill-opacity:1;" d="M 0 5.984375 L 0 11.96875 L 35.015625 11.96875 L 35.015625 0 L 0 0 Z M 5.441406 1.269531 C 5.570312 1.335938 5.6875 1.476562 5.722656 1.574219 C 5.746094 1.679688 5.769531 2.738281 5.769531 3.925781 C 5.769531 5.859375 5.785156 6.082031 5.898438 6.03125 C 5.96875 6.007812 12.132812 5.984375 19.589844 5.984375 L 33.164062 5.984375 L 33.1875 5.722656 C 33.207031 5.558594 33.261719 5.441406 33.332031 5.425781 C 33.5 5.394531 34.375 6.066406 34.375 6.230469 C 34.375 6.378906 33.566406 7.050781 33.390625 7.050781 C 33.261719 7.050781 33.171875 6.878906 33.171875 6.632812 C 33.171875 6.476562 32.925781 6.476562 19.597656 6.476562 C 12.132812 6.476562 5.96875 6.449219 5.898438 6.425781 C 5.785156 6.378906 5.769531 6.597656 5.769531 8.558594 C 5.769531 10.84375 5.730469 11.132812 5.410156 11.261719 C 5.335938 11.285156 4.414062 11.3125 3.355469 11.3125 L 1.433594 11.3125 L 1.242188 11.105469 L 1.042969 10.910156 L 1.042969 1.550781 L 1.242188 1.351562 L 1.433594 1.148438 L 3.324219 1.148438 C 4.824219 1.148438 5.265625 1.171875 5.441406 1.269531 Z M 5.441406 1.269531 "/>
</g>
</svg>
